<svg width="166" height="40" viewBox="0 0 166 40" fill="none" xmlns="http://www.w3.org/2000/svg">
<path d="M3.51 0.5C1.573 0.5 0 2.073 0 4.01C0 5.492 0.9425 6.818 2.34 7.312V16.1C2.34 16.7435 2.8665 17.27 3.51 17.27C3.6335 17.27 3.7505 17.2505 3.8675 17.2115L12.818 14.3255C13.481 15.1965 14.508 15.7035 15.6 15.71C17.537 15.71 19.11 14.137 19.11 12.2C19.11 10.263 17.537 8.69 15.6 8.69C13.702 8.69 12.1485 10.2045 12.0965 12.1025L4.68 14.4945V7.312C6.0775 6.818 7.0135 5.4985 7.02 4.01C7.02 2.073 5.447 0.5 3.51 0.5Z" fill="#E30427"/>
<path d="M27.6898 39.5005C29.6268 39.5005 31.1998 37.9275 31.1998 35.9905C31.1998 34.5085 30.2573 33.1825 28.8598 32.6885V23.9005C28.8598 23.257 28.3333 22.7305 27.6898 22.7305C27.5663 22.7305 27.4493 22.75 27.3323 22.789L18.3818 25.675C17.7188 24.804 16.6918 24.297 15.5998 24.2905C13.6628 24.2905 12.0898 25.8635 12.0898 27.8005C12.0898 29.7375 13.6628 31.3105 15.5998 31.3105C17.4978 31.3105 19.0513 29.796 19.1033 27.898L26.5198 25.506V32.6885C25.1223 33.1825 24.1863 34.502 24.1798 35.9905C24.1798 37.9275 25.7528 39.5005 27.6898 39.5005Z" fill="#E30427"/>
<path d="M27.69 0.5C25.753 0.5 24.18 2.073 24.18 4.01C24.18 5.4985 25.116 6.8245 26.52 7.3185V15.2485L3.1525 22.7885C2.6715 22.9445 2.34 23.393 2.3465 23.9V32.6815C0.936 33.1755 0 34.5015 0 35.99C0 37.927 1.573 39.5 3.51 39.5C5.447 39.5 7.02 37.927 7.02 35.99C7.02 34.5015 6.084 33.1755 4.68 32.6815V24.7515L28.0475 17.2115C28.5285 17.0555 28.86 16.607 28.86 16.1V7.312C30.2575 6.818 31.2 5.492 31.2 4.0035C31.2 2.073 29.627 0.5 27.69 0.5Z" fill="#6B6A6A"/>
<path d="M41.6336 25.0235C41.4256 24.835 41.3281 24.5945 41.3281 24.302V15.1045C41.3281 14.8055 41.4321 14.5585 41.6336 14.3765C41.8351 14.1945 42.1211 14.1035 42.4786 14.1035C42.7581 14.1035 42.9921 14.201 43.1806 14.3895C43.3691 14.578 43.4666 14.8185 43.4666 15.111V18.6405H48.7446V15.111C48.7446 14.8315 48.8551 14.591 49.0696 14.396C49.2841 14.201 49.5441 14.1035 49.8496 14.1035C50.1291 14.1035 50.3696 14.201 50.5646 14.3895C50.7596 14.578 50.8571 14.8185 50.8571 15.111V24.3085C50.8571 24.588 50.7596 24.8285 50.5646 25.0235C50.3696 25.2185 50.1356 25.316 49.8496 25.316C49.5636 25.316 49.3036 25.2185 49.0826 25.0235C48.8616 24.8285 48.7511 24.5945 48.7511 24.3085V20.7595H43.4731V24.3085C43.4731 24.588 43.3756 24.8285 43.1871 25.0235C42.9986 25.2185 42.7646 25.316 42.4851 25.316C42.1276 25.316 41.8481 25.2185 41.6401 25.03L41.6336 25.0235Z" fill="#E30427"/>
<path d="M56.0179 25.3419C55.8424 25.3419 55.7124 25.3289 55.6279 25.3094C55.4329 25.1989 55.2769 25.0559 55.1599 24.8804C55.0429 24.7049 54.9844 24.5034 54.9844 24.2889C54.9844 24.1069 55.0299 23.9249 55.1144 23.7559L59.7619 14.6689C59.8724 14.4544 60.0154 14.2854 60.1974 14.1749C60.3794 14.0644 60.5744 14.0059 60.7824 14.0059C60.9904 14.0059 61.1789 14.0644 61.3544 14.1749C61.5299 14.2854 61.6729 14.4544 61.7704 14.6689L66.3399 23.7559C66.4244 23.9184 66.4699 24.0939 66.4699 24.2759C66.4699 24.5749 66.3529 24.8349 66.1189 25.0364C65.8849 25.2444 65.6249 25.3419 65.3324 25.3419C65.1504 25.3419 64.9814 25.2964 64.8319 25.1989C64.6824 25.1014 64.5589 24.9584 64.4614 24.7634L63.7464 23.3399H57.7729L57.0774 24.7634C56.8954 25.1534 56.5444 25.3484 56.0244 25.3484L56.0179 25.3419ZM60.7629 17.1974L58.7739 21.1949H62.5959L60.7694 17.1974H60.7629Z" fill="#E30427"/>
<path d="M72.3786 25.0495C72.1576 25.2445 71.9041 25.342 71.6116 25.342C71.3191 25.342 71.0721 25.251 70.8641 25.069C70.6561 24.887 70.5586 24.627 70.5586 24.289V15.0915C70.5586 14.812 70.6561 14.578 70.8446 14.3895C71.0331 14.201 71.2606 14.1035 71.5336 14.1035H75.8431C76.5971 14.1035 77.2536 14.279 77.8126 14.6235C78.3716 14.968 78.7876 15.423 79.0736 15.982C79.3596 16.541 79.5026 17.139 79.5026 17.763C79.5026 18.465 79.3206 19.1085 78.9631 19.687C78.5991 20.272 78.0726 20.701 77.3706 20.9805L79.5221 23.6065C79.6716 23.834 79.7496 24.068 79.7496 24.302C79.7496 24.5945 79.6456 24.8415 79.4311 25.0365C79.2231 25.238 78.9696 25.3355 78.6771 25.3355C78.3001 25.3355 77.9751 25.16 77.7086 24.8155L75.2646 21.3185H72.7231V24.25C72.7231 24.5815 72.6126 24.848 72.3916 25.043L72.3786 25.0495ZM75.8366 19.466C76.3436 19.466 76.7466 19.2905 77.0326 18.946C77.3251 18.6015 77.4681 18.1985 77.4681 17.7305C77.4681 17.2625 77.3251 16.8855 77.0391 16.554C76.7531 16.2225 76.3501 16.06 75.8301 16.06H72.7036V19.4595H75.8301L75.8366 19.466Z" fill="#E30427"/>
<path d="M84.5854 25.0567C84.3644 24.8877 84.2539 24.6407 84.2539 24.3027V15.1052C84.2539 14.8257 84.3709 14.5852 84.6049 14.3902C84.8389 14.1952 85.0924 14.0977 85.3719 14.0977H89.0769C90.2534 14.0977 91.2544 14.3642 92.0864 14.8907C92.9184 15.4172 93.5424 16.1127 93.9584 16.9642C94.3744 17.8157 94.5824 18.7322 94.5824 19.7007C94.5824 20.6692 94.3744 21.5857 93.9649 22.4372C93.5554 23.2887 92.9444 23.9842 92.1384 24.5107C91.3259 25.0372 90.3574 25.3037 89.2264 25.3037H85.3719C85.0664 25.3037 84.8064 25.2192 84.5854 25.0502V25.0567ZM86.3924 23.3342H89.0834C89.7854 23.3342 90.3899 23.1587 90.8969 22.8077C91.4039 22.4567 91.7874 22.0017 92.0474 21.4362C92.3074 20.8772 92.4374 20.2792 92.4374 19.6357C92.4374 18.9922 92.3074 18.4397 92.0539 17.8937C91.8004 17.3477 91.4169 16.9057 90.9099 16.5742C90.4029 16.2427 89.7919 16.0737 89.0834 16.0737H86.3924V23.3277V23.3342Z" fill="#E30427"/>
<path d="M110.552 21.4425L112.964 14.7735C113.061 14.533 113.198 14.3575 113.367 14.234C113.542 14.1105 113.731 14.0455 113.952 14.0455C114.231 14.0455 114.478 14.143 114.686 14.3315C114.894 14.52 115.005 14.7605 115.005 15.053C115.005 15.183 114.979 15.326 114.927 15.4885L111.722 24.1855C111.579 24.6405 111.43 24.9525 111.267 25.1215C111.105 25.297 110.884 25.3815 110.604 25.3815C110.344 25.3815 110.149 25.3165 110.013 25.18C109.876 25.0435 109.714 24.7965 109.519 24.4455L106.704 18.0495L104.013 24.348C103.851 24.712 103.688 24.985 103.519 25.1605C103.35 25.336 103.136 25.4205 102.863 25.4205C102.59 25.4205 102.375 25.3295 102.206 25.154C102.037 24.9785 101.888 24.699 101.745 24.322L98.6053 15.495C98.5533 15.3325 98.5273 15.196 98.5273 15.0725C98.5273 14.7605 98.6378 14.5135 98.8523 14.325C99.0668 14.143 99.3203 14.052 99.6128 14.052C99.8273 14.052 100.029 14.117 100.211 14.2405C100.393 14.364 100.523 14.546 100.601 14.78L102.999 21.449L105.866 14.78C105.963 14.5395 106.093 14.3575 106.262 14.221C106.431 14.0845 106.607 14.0195 106.789 14.0195C106.971 14.0195 107.146 14.078 107.309 14.195C107.471 14.312 107.601 14.494 107.699 14.728L110.565 21.449L110.552 21.4425Z" fill="#E30427"/>
<path d="M118.612 25.3419C118.436 25.3419 118.306 25.3289 118.222 25.3094C118.027 25.1989 117.871 25.0559 117.754 24.8804C117.637 24.7049 117.578 24.5034 117.578 24.2889C117.578 24.1069 117.624 23.9249 117.708 23.7559L122.356 14.6689C122.466 14.4544 122.609 14.2854 122.791 14.1749C122.973 14.0644 123.168 14.0059 123.376 14.0059C123.584 14.0059 123.773 14.0644 123.948 14.1749C124.124 14.2854 124.267 14.4544 124.364 14.6689L128.934 23.7559C129.018 23.9184 129.064 24.0939 129.064 24.2759C129.064 24.5749 128.947 24.8349 128.713 25.0364C128.479 25.2444 128.219 25.3419 127.926 25.3419C127.744 25.3419 127.575 25.2964 127.426 25.1989C127.276 25.1014 127.153 24.9584 127.055 24.7634L126.34 23.3399H120.367L119.671 24.7634C119.489 25.1534 119.138 25.3484 118.618 25.3484L118.612 25.3419ZM123.357 17.1974L121.368 21.1949H125.19L123.363 17.1974H123.357Z" fill="#E30427"/>
<path d="M134.98 25.0495C134.759 25.2445 134.506 25.342 134.213 25.342C133.921 25.342 133.674 25.251 133.466 25.069C133.258 24.887 133.16 24.627 133.16 24.289V15.0915C133.16 14.812 133.258 14.578 133.446 14.3895C133.635 14.201 133.862 14.1035 134.135 14.1035H138.445C139.199 14.1035 139.855 14.279 140.414 14.6235C140.973 14.968 141.389 15.423 141.675 15.982C141.961 16.541 142.104 17.139 142.104 17.763C142.104 18.465 141.922 19.1085 141.565 19.687C141.201 20.272 140.674 20.701 139.972 20.9805L142.124 23.6065C142.273 23.834 142.351 24.068 142.351 24.302C142.351 24.5945 142.247 24.8415 142.033 25.0365C141.825 25.238 141.571 25.3355 141.279 25.3355C140.902 25.3355 140.577 25.16 140.31 24.8155L137.866 21.3185H135.325V24.25C135.325 24.5815 135.214 24.848 134.993 25.043L134.98 25.0495ZM138.438 19.466C138.945 19.466 139.348 19.2905 139.634 18.946C139.927 18.6015 140.07 18.1985 140.07 17.7305C140.07 17.2625 139.927 16.8855 139.641 16.554C139.355 16.2225 138.952 16.06 138.432 16.06H135.305V19.4595H138.432L138.438 19.466Z" fill="#E30427"/>
<path d="M146.965 15.0791C146.965 14.7671 147.075 14.5201 147.29 14.3316C147.504 14.1496 147.758 14.0586 148.05 14.0586C148.343 14.0586 148.59 14.1496 148.798 14.3251C148.999 14.5006 149.103 14.7541 149.103 15.0791V24.3221C149.103 24.6471 148.999 24.8941 148.785 25.0761C148.57 25.2581 148.317 25.3426 148.018 25.3426C147.738 25.3426 147.491 25.2516 147.283 25.0761C147.075 24.9006 146.965 24.6471 146.965 24.3221V15.0791Z" fill="#E30427"/>
<path d="M164.92 22.794C164.361 23.6715 163.646 24.341 162.755 24.796C161.871 25.251 160.935 25.4785 159.954 25.4785C158.92 25.524 157.932 25.3225 156.996 24.887C156.06 24.4515 155.306 23.782 154.721 22.885C154.136 21.988 153.844 20.909 153.844 19.648C153.844 18.387 154.136 17.308 154.721 16.411C155.306 15.514 156.06 14.838 156.996 14.3895C157.932 13.9345 158.914 13.707 159.954 13.707C160.948 13.759 161.884 14.019 162.768 14.487C163.652 14.9485 164.374 15.6245 164.92 16.502C165.472 17.3795 165.745 18.4325 165.745 19.6545C165.745 20.8765 165.466 21.923 164.913 22.807L164.92 22.794ZM163.074 17.555C162.703 16.97 162.222 16.5345 161.631 16.242C161.039 15.9495 160.422 15.8065 159.778 15.8065C159.135 15.8065 158.55 15.9495 157.965 16.242C157.38 16.5345 156.905 16.97 156.541 17.555C156.177 18.14 155.989 18.8355 155.989 19.6415C155.989 20.4475 156.171 21.143 156.541 21.7215C156.905 22.3 157.386 22.7355 157.965 23.0345C158.55 23.3335 159.154 23.483 159.778 23.483C160.402 23.483 161.046 23.3335 161.631 23.0345C162.222 22.7355 162.697 22.3 163.074 21.7215C163.444 21.143 163.633 20.4475 163.633 19.6415C163.633 18.8355 163.444 18.1335 163.074 17.555Z" fill="#E30427"/>
</svg>
