<svg width="450" height="105" viewBox="0 0 450 105" fill="none" xmlns="http://www.w3.org/2000/svg">
<path d="M9.52975 0C4.27074 0 0 4.235 0 9.45C0 13.44 2.55891 17.01 6.35316 18.34V42C6.35316 43.7325 7.78263 45.15 9.52975 45.15C9.86505 45.15 10.1827 45.0975 10.5004 44.9925L34.8012 37.2225C36.6013 39.5675 39.3896 40.9325 42.3544 40.95C47.6134 40.95 51.8842 36.715 51.8842 31.5C51.8842 26.285 47.6134 22.05 42.3544 22.05C37.2013 22.05 32.9835 26.1275 32.8423 31.2375L12.7063 37.6775V18.34C16.5006 17.01 19.0418 13.4575 19.0595 9.45C19.0595 4.235 14.7888 0 9.52975 0Z" fill="#E30427"/>
<path d="M75.1747 105C80.4338 105 84.7045 100.765 84.7045 95.5496C84.7045 91.5596 82.1456 87.9896 78.3513 86.6596V62.9996C78.3513 61.2671 76.9219 59.8496 75.1747 59.8496C74.8394 59.8496 74.5218 59.9021 74.2041 60.0071L49.9033 67.7771C48.1032 65.4321 45.3149 64.0671 42.3501 64.0496C37.0911 64.0496 32.8203 68.2846 32.8203 73.4996C32.8203 78.7146 37.0911 82.9496 42.3501 82.9496C47.5032 82.9496 51.721 78.8721 51.8622 73.7621L71.9982 67.3221V86.6596C68.2039 87.9896 65.6626 91.5421 65.645 95.5496C65.645 100.765 69.9157 105 75.1747 105Z" fill="#E30427"/>
<path d="M75.1791 0C69.9201 0 65.6494 4.235 65.6494 9.45C65.6494 13.4575 68.1906 17.0275 72.0025 18.3575V39.7075L8.55912 60.0075C7.2532 60.4275 6.35316 61.635 6.37081 63V86.6425C2.54127 87.9725 0 91.5425 0 95.55C0 100.765 4.27074 105 9.52975 105C14.7888 105 19.0595 100.765 19.0595 95.55C19.0595 91.5425 16.5182 87.9725 12.7063 86.6425V65.2925L76.1497 44.9925C77.4557 44.5725 78.3557 43.365 78.3557 42V18.34C82.15 17.01 84.7089 13.44 84.7089 9.4325C84.7089 4.235 80.4381 0 75.1791 0Z" fill="white"/>
<path d="M113.033 66.0289C112.468 65.5214 112.203 64.8739 112.203 64.0864V39.3239C112.203 38.5189 112.485 37.8539 113.033 37.3639C113.58 36.8739 114.356 36.6289 115.327 36.6289C116.086 36.6289 116.721 36.8914 117.233 37.3989C117.744 37.9064 118.009 38.5539 118.009 39.3414V48.8439H132.339V39.3414C132.339 38.5889 132.639 37.9414 133.222 37.4164C133.804 36.8914 134.51 36.6289 135.339 36.6289C136.098 36.6289 136.751 36.8914 137.28 37.3989C137.81 37.9064 138.075 38.5539 138.075 39.3414V64.1039C138.075 64.8564 137.81 65.5039 137.28 66.0289C136.751 66.5539 136.116 66.8164 135.339 66.8164C134.563 66.8164 133.857 66.5539 133.257 66.0289C132.657 65.5039 132.357 64.8739 132.357 64.1039V54.5489H118.027V64.1039C118.027 64.8564 117.762 65.5039 117.25 66.0289C116.739 66.5539 116.103 66.8164 115.344 66.8164C114.374 66.8164 113.615 66.5539 113.05 66.0464L113.033 66.0289Z" fill="#E30427"/>
<path d="M152.087 66.8852C151.611 66.8852 151.258 66.8502 151.028 66.7977C150.499 66.5002 150.075 66.1152 149.758 65.6427C149.44 65.1702 149.281 64.6277 149.281 64.0502C149.281 63.5602 149.405 63.0702 149.634 62.6152L162.252 38.1502C162.552 37.5727 162.941 37.1177 163.435 36.8202C163.929 36.5227 164.458 36.3652 165.023 36.3652C165.588 36.3652 166.099 36.5227 166.576 36.8202C167.052 37.1177 167.441 37.5727 167.705 38.1502L180.112 62.6152C180.341 63.0527 180.465 63.5252 180.465 64.0152C180.465 64.8202 180.147 65.5202 179.512 66.0627C178.876 66.6227 178.171 66.8852 177.376 66.8852C176.882 66.8852 176.423 66.7627 176.017 66.5002C175.612 66.2377 175.276 65.8527 175.012 65.3277L173.07 61.4952H156.852L154.964 65.3277C154.47 66.3777 153.517 66.9027 152.105 66.9027L152.087 66.8852ZM164.97 44.9577L159.57 55.7202H169.947L164.988 44.9577H164.97Z" fill="#E30427"/>
<path d="M196.504 66.0989C195.904 66.6239 195.216 66.8864 194.421 66.8864C193.627 66.8864 192.957 66.6414 192.392 66.1514C191.827 65.6614 191.562 64.9614 191.562 64.0514V39.2889C191.562 38.5364 191.827 37.9064 192.339 37.3989C192.851 36.8914 193.468 36.6289 194.21 36.6289H205.91C207.957 36.6289 209.74 37.1014 211.257 38.0289C212.775 38.9564 213.904 40.1814 214.681 41.6864C215.457 43.1914 215.846 44.8014 215.846 46.4814C215.846 48.3714 215.352 50.1039 214.381 51.6614C213.393 53.2364 211.963 54.3914 210.057 55.1439L215.899 62.2139C216.305 62.8264 216.516 63.4564 216.516 64.0864C216.516 64.8739 216.234 65.5389 215.652 66.0639C215.087 66.6064 214.399 66.8689 213.604 66.8689C212.581 66.8689 211.698 66.3964 210.975 65.4689L204.339 56.0539H197.439V63.9464C197.439 64.8389 197.139 65.5564 196.539 66.0814L196.504 66.0989ZM205.892 51.0664C207.269 51.0664 208.363 50.5939 209.14 49.6664C209.934 48.7389 210.322 47.6539 210.322 46.3939C210.322 45.1339 209.934 44.1189 209.157 43.2264C208.381 42.3339 207.287 41.8964 205.875 41.8964H197.386V51.0489H205.875L205.892 51.0664Z" fill="#E30427"/>
<path d="M229.65 66.1163C229.05 65.6613 228.75 64.9963 228.75 64.0863V39.3238C228.75 38.5713 229.068 37.9238 229.703 37.3988C230.338 36.8738 231.027 36.6113 231.785 36.6113H241.845C245.039 36.6113 247.757 37.3288 250.015 38.7463C252.274 40.1638 253.969 42.0363 255.098 44.3288C256.227 46.6213 256.792 49.0888 256.792 51.6963C256.792 54.3038 256.227 56.7713 255.116 59.0638C254.004 61.3563 252.345 63.2288 250.157 64.6463C247.951 66.0638 245.321 66.7813 242.25 66.7813H231.785C230.956 66.7813 230.25 66.5538 229.65 66.0988V66.1163ZM234.556 61.4788H241.862C243.768 61.4788 245.409 61.0063 246.786 60.0613C248.162 59.1163 249.204 57.8913 249.91 56.3688C250.615 54.8638 250.968 53.2538 250.968 51.5213C250.968 49.7888 250.615 48.3013 249.927 46.8313C249.239 45.3613 248.198 44.1713 246.821 43.2788C245.445 42.3863 243.786 41.9313 241.862 41.9313H234.556V61.4613V61.4788Z" fill="#E30427"/>
<path d="M300.148 56.3854L306.695 38.4304C306.96 37.7829 307.331 37.3104 307.79 36.9779C308.266 36.6454 308.778 36.4704 309.378 36.4704C310.137 36.4704 310.807 36.7329 311.372 37.2404C311.937 37.7479 312.237 38.3954 312.237 39.1829C312.237 39.5329 312.166 39.9179 312.025 40.3554L303.325 63.7704C302.937 64.9954 302.531 65.8354 302.089 66.2904C301.648 66.7629 301.048 66.9904 300.289 66.9904C299.583 66.9904 299.054 66.8154 298.683 66.4479C298.313 66.0804 297.872 65.4154 297.342 64.4704L289.701 47.2504L282.395 64.2079C281.953 65.1879 281.512 65.9229 281.053 66.3954C280.595 66.8679 280.012 67.0954 279.271 67.0954C278.53 67.0954 277.947 66.8504 277.489 66.3779C277.03 65.9054 276.624 65.1529 276.236 64.1379L267.712 40.3729C267.571 39.9354 267.5 39.5679 267.5 39.2354C267.5 38.3954 267.8 37.7304 268.382 37.2229C268.965 36.7329 269.653 36.4879 270.447 36.4879C271.03 36.4879 271.577 36.6629 272.071 36.9954C272.565 37.3279 272.918 37.8179 273.13 38.4479L279.642 56.4029L287.424 38.4479C287.689 37.8004 288.042 37.3104 288.501 36.9429C288.96 36.5754 289.436 36.4004 289.93 36.4004C290.424 36.4004 290.901 36.5579 291.342 36.8729C291.783 37.1879 292.136 37.6779 292.401 38.3079L300.184 56.4029L300.148 56.3854Z" fill="#E30427"/>
<path d="M322.033 66.8852C321.556 66.8852 321.203 66.8502 320.974 66.7977C320.444 66.5002 320.021 66.1152 319.703 65.6427C319.385 65.1702 319.227 64.6277 319.227 64.0502C319.227 63.5602 319.35 63.0702 319.58 62.6152L332.198 38.1502C332.498 37.5727 332.886 37.1177 333.38 36.8202C333.874 36.5227 334.404 36.3652 334.968 36.3652C335.533 36.3652 336.045 36.5227 336.521 36.8202C336.998 37.1177 337.386 37.5727 337.651 38.1502L350.057 62.6152C350.286 63.0527 350.41 63.5252 350.41 64.0152C350.41 64.8202 350.092 65.5202 349.457 66.0627C348.822 66.6227 348.116 66.8852 347.322 66.8852C346.828 66.8852 346.369 66.7627 345.963 66.5002C345.557 66.2377 345.222 65.8527 344.957 65.3277L343.016 61.4952H326.797L324.909 65.3277C324.415 66.3777 323.462 66.9027 322.05 66.9027L322.033 66.8852ZM334.915 44.9577L329.515 55.7202H339.892L334.933 44.9577H334.915Z" fill="#E30427"/>
<path d="M366.473 66.0989C365.873 66.6239 365.184 66.8864 364.39 66.8864C363.596 66.8864 362.925 66.6414 362.361 66.1514C361.796 65.6614 361.531 64.9614 361.531 64.0514V39.2889C361.531 38.5364 361.796 37.9064 362.308 37.3989C362.82 36.8914 363.437 36.6289 364.178 36.6289H375.879C377.926 36.6289 379.708 37.1014 381.226 38.0289C382.744 38.9564 383.873 40.1814 384.65 41.6864C385.426 43.1914 385.814 44.8014 385.814 46.4814C385.814 48.3714 385.32 50.1039 384.35 51.6614C383.361 53.2364 381.932 54.3914 380.026 55.1439L385.867 62.2139C386.273 62.8264 386.485 63.4564 386.485 64.0864C386.485 64.8739 386.203 65.5389 385.62 66.0639C385.056 66.6064 384.367 66.8689 383.573 66.8689C382.55 66.8689 381.667 66.3964 380.944 65.4689L374.308 56.0539H367.408V63.9464C367.408 64.8389 367.108 65.5564 366.508 66.0814L366.473 66.0989ZM375.861 51.0664C377.238 51.0664 378.332 50.5939 379.108 49.6664C379.902 48.7389 380.291 47.6539 380.291 46.3939C380.291 45.1339 379.902 44.1189 379.126 43.2264C378.349 42.3339 377.255 41.8964 375.844 41.8964H367.355V51.0489H375.844L375.861 51.0664Z" fill="#E30427"/>
<path d="M399.016 39.2534C399.016 38.4134 399.316 37.7484 399.898 37.2409C400.48 36.7509 401.169 36.5059 401.963 36.5059C402.757 36.5059 403.428 36.7509 403.992 37.2234C404.539 37.6959 404.822 38.3784 404.822 39.2534V64.1384C404.822 65.0134 404.539 65.6784 403.957 66.1684C403.375 66.6584 402.686 66.8859 401.875 66.8859C401.116 66.8859 400.445 66.6409 399.88 66.1684C399.316 65.6959 399.016 65.0134 399.016 64.1384V39.2534Z" fill="#E30427"/>
<path d="M447.759 60.0255C446.241 62.3881 444.3 64.1906 441.882 65.4156C439.482 66.6406 436.941 67.2531 434.276 67.2531C431.47 67.3756 428.788 66.8331 426.247 65.6606C423.705 64.4881 421.658 62.6855 420.07 60.2705C418.482 57.8555 417.688 54.9505 417.688 51.5555C417.688 48.1605 418.482 45.2555 420.07 42.8405C421.658 40.4255 423.705 38.6055 426.247 37.398C428.788 36.173 431.453 35.5605 434.276 35.5605C436.976 35.7005 439.518 36.4005 441.918 37.6605C444.318 38.903 446.277 40.723 447.759 43.0855C449.259 45.4481 450 48.283 450 51.573C450 54.863 449.242 57.6805 447.742 60.0606L447.759 60.0255ZM442.747 45.9205C441.741 44.3455 440.435 43.173 438.829 42.3855C437.224 41.598 435.547 41.213 433.8 41.213C432.053 41.213 430.464 41.598 428.876 42.3855C427.288 43.173 426 44.3455 425.011 45.9205C424.023 47.4955 423.511 49.3681 423.511 51.5381C423.511 53.7081 424.005 55.5806 425.011 57.1381C426 58.6956 427.306 59.868 428.876 60.673C430.464 61.478 432.106 61.8806 433.8 61.8806C435.494 61.8806 437.241 61.478 438.829 60.673C440.435 59.868 441.724 58.6956 442.747 57.1381C443.753 55.5806 444.265 53.7081 444.265 51.5381C444.265 49.3681 443.753 47.478 442.747 45.9205Z" fill="#E30427"/>
</svg>
